<mxfile host="app.diagrams.net" modified="2024-05-03T08:53:48.206Z" agent="Mozilla/5.0 (Windows NT 10.0; Win64; x64) AppleWebKit/537.36 (KHTML, like Gecko) Chrome/124.0.0.0 Safari/537.36 Edg/124.0.0.0" etag="3DXTbd9ZVcWFk4kH6_Zk" version="24.3.1" type="github">
  <diagram name="第 1 页" id="TG4mMq8s40DMtdgKRn60">
    <mxGraphModel dx="786" dy="472" grid="1" gridSize="10" guides="1" tooltips="1" connect="1" arrows="1" fold="1" page="1" pageScale="1" pageWidth="827" pageHeight="1169" math="0" shadow="0">
      <root>
        <mxCell id="0" />
        <mxCell id="1" parent="0" />
        <mxCell id="bLat9LtyxPnboMzHIf-S-4" value="" style="edgeStyle=orthogonalEdgeStyle;rounded=1;orthogonalLoop=1;jettySize=auto;html=1;fillColor=#1ba1e2;strokeColor=#006EAF;labelBackgroundColor=none;labelBorderColor=none;" edge="1" parent="1" source="bLat9LtyxPnboMzHIf-S-1" target="bLat9LtyxPnboMzHIf-S-3">
          <mxGeometry relative="1" as="geometry" />
        </mxCell>
        <mxCell id="bLat9LtyxPnboMzHIf-S-1" value="源端口（16位）" style="rounded=1;whiteSpace=wrap;html=1;fillColor=#1ba1e2;strokeColor=#006EAF;fontColor=#ffffff;labelBackgroundColor=none;labelBorderColor=none;" vertex="1" parent="1">
          <mxGeometry x="230" y="140" width="120" height="40" as="geometry" />
        </mxCell>
        <mxCell id="bLat9LtyxPnboMzHIf-S-6" value="" style="edgeStyle=orthogonalEdgeStyle;rounded=1;orthogonalLoop=1;jettySize=auto;html=1;fillColor=#1ba1e2;strokeColor=#006EAF;labelBackgroundColor=none;labelBorderColor=none;" edge="1" parent="1" source="bLat9LtyxPnboMzHIf-S-2" target="bLat9LtyxPnboMzHIf-S-5">
          <mxGeometry relative="1" as="geometry" />
        </mxCell>
        <mxCell id="bLat9LtyxPnboMzHIf-S-2" value="目标端口号（16位）" style="rounded=1;whiteSpace=wrap;html=1;fillColor=#1ba1e2;strokeColor=#006EAF;fontColor=#ffffff;labelBackgroundColor=none;labelBorderColor=none;" vertex="1" parent="1">
          <mxGeometry x="350" y="140" width="120" height="40" as="geometry" />
        </mxCell>
        <mxCell id="bLat9LtyxPnboMzHIf-S-3" value="包长度（16位）" style="rounded=1;whiteSpace=wrap;html=1;fillColor=#1ba1e2;strokeColor=#006EAF;fontColor=#ffffff;labelBackgroundColor=none;labelBorderColor=none;" vertex="1" parent="1">
          <mxGeometry x="230" y="180" width="120" height="40" as="geometry" />
        </mxCell>
        <mxCell id="bLat9LtyxPnboMzHIf-S-5" value="校验和（16位）" style="rounded=1;whiteSpace=wrap;html=1;fillColor=#1ba1e2;strokeColor=#006EAF;fontColor=#ffffff;labelBackgroundColor=none;labelBorderColor=none;" vertex="1" parent="1">
          <mxGeometry x="350" y="180" width="120" height="40" as="geometry" />
        </mxCell>
        <mxCell id="bLat9LtyxPnboMzHIf-S-7" value="数据" style="rounded=1;whiteSpace=wrap;html=1;fillColor=#1ba1e2;strokeColor=#006EAF;fontColor=#ffffff;labelBackgroundColor=none;labelBorderColor=none;" vertex="1" parent="1">
          <mxGeometry x="230" y="220" width="240" height="60" as="geometry" />
        </mxCell>
        <mxCell id="bLat9LtyxPnboMzHIf-S-8" value="UDP头部格式" style="text;html=1;align=center;verticalAlign=middle;resizable=0;points=[];autosize=1;strokeColor=none;fillColor=none;rounded=1;" vertex="1" parent="1">
          <mxGeometry x="300" y="90" width="100" height="30" as="geometry" />
        </mxCell>
      </root>
    </mxGraphModel>
  </diagram>
</mxfile>
